<svg fill="none" height="60" viewBox="0 0 60 60" width="60" xmlns="http://www.w3.org/2000/svg">
    <path
        d="M50 25V17.5C50 14.7386 47.7615 12.5 45 12.5H15C12.2386 12.5 10 14.7386 10 17.5V25M50 25V47.5C50 50.2615 47.7615 52.5 45 52.5H15C12.2386 52.5 10 50.2615 10 47.5V25M50 25H10M20 7.5V17.5M40 7.5V17.5"
        stroke="black" stroke-linecap="round" stroke-width="5" />
    <path
        d="M42.5 35H35C33.6193 35 32.5 36.1193 32.5 37.5V45C32.5 46.3807 33.6193 47.5 35 47.5H42.5C43.8807 47.5 45 46.3807 45 45V37.5C45 36.1193 43.8807 35 42.5 35Z"
        fill="black" />
</svg>
