<svg fill="none" height="60" viewBox="0 0 60 60" width="60" xmlns="http://www.w3.org/2000/svg">
    <path
        d="M54.6425 50.4025C54.615 50.3725 54.6025 50.3374 54.5725 50.31C51.625 47.73 51.25 47.0575 51.25 41.25C51.25 41.0825 51.215 40.92 51.1525 40.7675C51.0901 40.6151 50.9975 40.4801 50.8825 40.365L50.18 39.68C48.9575 38.4975 46.6225 36.2201 43.8125 33.0326C44.185 30.4475 47.4275 26.93 50.6825 24.7951C50.72 24.7702 50.74 24.7351 50.775 24.7076C50.835 24.6575 50.8899 24.6076 50.9424 24.5501C50.9949 24.4901 51.0349 24.425 51.0724 24.3575C51.1099 24.2925 51.1423 24.2325 51.1674 24.1625C51.1974 24.0776 51.21 23.9925 51.2199 23.9025C51.225 23.85 51.2499 23.8025 51.2499 23.75C51.2499 23.7326 51.24 23.72 51.24 23.7026C51.2375 23.615 51.21 23.5276 51.1875 23.4401C51.17 23.3726 51.165 23.3026 51.135 23.24C51.1325 23.235 51.1325 23.2325 51.1325 23.2275C50.9425 22.815 50.7025 22.2675 50.415 21.6175C46.56 12.8674 41.9925 3.735 37.19 1.55496C35.3049 0.4125 32.8899 0 31.2474 0H28.7475C27.105 0 24.69 0.4125 22.805 1.5525C18.005 3.73254 13.4375 12.865 9.58004 21.6175C9.29258 22.2675 9.05258 22.815 8.8625 23.2275C8.86004 23.235 8.86004 23.2425 8.85746 23.2525C8.84246 23.2825 8.84246 23.32 8.82992 23.3524C8.78996 23.4749 8.75996 23.5949 8.75738 23.7175C8.75492 23.73 8.74988 23.7375 8.74988 23.7499C8.74988 23.785 8.76734 23.815 8.76992 23.8499C8.77988 23.9624 8.79746 24.0698 8.83496 24.1748C8.855 24.2298 8.88242 24.2774 8.90996 24.3273C8.95496 24.4098 9.005 24.4873 9.06746 24.5598C9.11 24.6098 9.15746 24.6498 9.2075 24.6923C9.245 24.7248 9.26996 24.7649 9.3125 24.7923C12.5675 26.9273 15.815 30.4448 16.1825 33.0298C13.375 36.2173 11.04 38.4948 9.81746 39.6772L9.11492 40.3622C9.05738 40.4222 9.02492 40.4996 8.97992 40.5671C8.93492 40.6346 8.87738 40.6922 8.84738 40.7672C8.78492 40.9196 8.74988 41.0822 8.74988 41.2496C8.74988 47.0571 8.37488 47.7296 5.42738 50.3096C5.39738 50.3372 5.38484 50.3747 5.35742 50.4021C2.9675 51.2825 1.25 53.56 1.25 56.25V58.75C1.25 59.44 1.81004 60 2.50004 60H57.5C58.19 60 58.75 59.44 58.75 58.75V56.25C58.7499 53.56 57.0324 51.2825 54.6425 50.4025ZM48.0725 22.5H42.5C41.81 22.5 41.25 23.06 41.25 23.75C41.25 24.44 41.81 25.0001 42.5 25.0001H46.375C44.6 26.5901 42.7925 28.6201 41.87 30.7576C40.17 28.7126 38.365 26.3801 36.545 23.7652C38.685 20.3377 39.7775 11.3527 39.965 7.3527C43.3475 11.835 46.56 19.0675 48.0725 22.5ZM23.8599 3.82254C23.9574 3.78 24.0549 3.71508 24.1524 3.6825C24.3324 3.6225 24.4824 3.5175 24.6099 3.39504C26.4099 2.5425 28.7124 2.50008 28.7499 2.50008H31.2499C31.2874 2.50008 33.5848 2.54262 35.3824 3.39012C35.5099 3.51516 35.6599 3.62016 35.8423 3.68262C35.9423 3.71766 36.0473 3.78516 36.1474 3.83016C36.935 4.38 37.5 5.1525 37.5 6.24996C37.5 11.1175 35.82 21.3349 34.1649 22.8199C32.9349 23.9275 30.0124 24.355 27.8049 23.7925C27.7699 23.785 27.7399 23.7775 27.705 23.7724C26.97 23.575 26.3199 23.2649 25.8474 22.8299C24.5 21.5925 22.5 10.9 22.5 6.24996C22.5 5.14746 23.07 4.3725 23.8599 3.82254ZM30.935 26.4575L30.2274 30H29.775L29.07 26.4775C29.3375 26.4949 29.6049 26.5324 29.8725 26.5324C30.23 26.5325 30.5825 26.4875 30.935 26.4575ZM13.62 25H17.4999C18.1899 25 18.75 24.4399 18.75 23.7499C18.75 23.0599 18.1899 22.5 17.4999 22.5H11.9224C13.4349 19.0675 16.6498 11.8275 20.0349 7.34496C20.2599 11.44 21.5649 20.4124 23.4724 23.7375C21.6448 26.365 19.8324 28.7075 18.1249 30.76C17.2025 28.62 15.395 26.59 13.62 25ZM17.8425 34.935C18.3 34.8025 18.645 34.4225 18.7149 33.935C20.7624 31.5675 23.0175 28.74 25.2999 25.4825C25.6474 25.6725 26.0299 25.82 26.4174 25.955L27.525 31.4951C27.6425 32.0801 28.155 32.5001 28.7499 32.5001H31.2499C31.8448 32.5001 32.3574 32.0801 32.4748 31.4926L33.5923 25.9051C33.9724 25.7726 34.3523 25.6376 34.6823 25.4626C36.9698 28.7251 39.2273 31.5601 41.2798 33.9301C41.3548 34.4201 41.6974 34.8001 42.1549 34.9327C44.0449 37.0651 45.6874 38.7577 46.9374 40.0002H13.0575C14.31 38.7575 15.9525 37.065 17.8425 34.935ZM21.2499 57.5H18.75V56.25C18.75 55.56 18.1899 55 17.4999 55C16.8099 55 16.2499 55.56 16.2499 56.25V57.5H13.7499V56.25C13.7499 55.56 13.1899 55 12.4999 55C11.8099 55 11.25 55.56 11.25 56.25V57.5H8.75V56.25C8.75 55.56 8.18996 55 7.49996 55C6.80996 55 6.24992 55.56 6.24992 56.25V57.5H3.74996V56.25C3.74996 54.1825 5.43242 52.5 7.49996 52.5H17.4999C19.5675 52.5 21.2499 54.1825 21.2499 56.25V57.5ZM36.2499 56.25V57.5H31.2499V51.2501C31.2499 50.5601 30.6898 50 29.9998 50C29.3098 50 28.7498 50.5601 28.7498 51.2501V57.5H23.7498V56.25C23.7498 52.8025 20.9448 50 17.4998 50H9.275C10.7775 48.1676 11.17 46.3151 11.2325 42.5H48.7675C48.83 46.3151 49.2226 48.1676 50.725 50H42.5C39.0549 50 36.2499 52.8025 36.2499 56.25ZM56.25 57.5H53.75V56.25C53.75 55.56 53.19 55 52.5 55C51.81 55 51.2499 55.56 51.2499 56.25V57.5H48.75V56.25C48.75 55.56 48.1899 55 47.4999 55C46.8099 55 46.2499 55.56 46.2499 56.25V57.5H43.7499V56.25C43.7499 55.56 43.1899 55 42.4999 55C41.8099 55 41.25 55.56 41.25 56.25V57.5H38.75V56.25C38.75 54.1825 40.4325 52.5 42.5 52.5H52.5C54.5675 52.5 56.25 54.1825 56.25 56.25V57.5Z"
        fill="black" />
</svg>
