<svg fill="none" height="55" viewBox="0 0 55 55" width="55" xmlns="http://www.w3.org/2000/svg">
    <path
        d="M11.67 54.3106C9.97 52.6106 11.25 49.3206 14.45 47.1406C18.29 44.5206 20 44.9306 20 48.4706C20 52.0506 13.77 56.4206 11.67 54.3106ZM27.95 48.7306C23.83 45.9506 20.67 40.7406 20.78 36.8806C20.85 34.4406 20.47 33.9806 18.4 33.9806C8.15 33.9806 0.0300007 21.6206 4.54 12.8906C6.49 9.13063 8.24 7.46063 12 5.82063C16.33 3.92063 36.27 0.0206338 41.76 0.000633771C46.32 -0.0193662 47.5 0.420633 50.58 3.23063C55.53 7.77063 55.74 11.3906 52.11 28.8506C48.97 43.9506 47.7 46.5106 41.8 49.5806C37.74 51.6906 31.81 51.3306 27.95 48.7306ZM40.47 42.7306C42.63 40.8406 43.44 38.4806 45.5 27.9806C48.68 11.7906 48.68 9.47063 45.51 7.40063C43.19 5.87063 42.11 5.94063 28.83 8.37063C12.79 11.3106 10 12.8406 10 18.7006C10 23.5806 13.71 26.9806 19.02 26.9806C25.59 26.9806 27 28.2306 27 34.0906C27 38.3306 27.47 39.6006 29.92 42.0606C33.44 45.5806 36.95 45.8006 40.47 42.7306ZM10.2 44.7806C9.54 44.1206 9 42.8506 9 41.9506C9 39.6706 13.21 35.9806 15.81 35.9806C19 35.9806 18.66 39.9706 15.2 43.2906C11.99 46.3606 11.83 46.4106 10.2 44.7806ZM0.67 43.3106C0.3 42.9506 0 41.6706 0 40.4706C0 35.8406 8.18 32.2806 8.8 36.6306C9.32 40.2306 2.88 45.5306 0.67 43.3106Z"
        fill="#F8F2F9" />
</svg>
